# xmcd
#
# Track frame offsets:
#	150
#	17710
#	29965
#	41735
#	57155
#	66560
#	79665
#	91792
#	102900
#	121720
#	133310
#	148382
#	161410
#	173592
#	187200
#	203520
#
# Disc length: 2885 seconds
#
# Revision: 0
# Processed by: cddbd v1.5.1PL2 Copyright (c) Steve Scherf et al.
# Submitted via: audiograbber 1.83.01
#
DISCID=e60b4310
DTITLE=Various Artist - That's Country CD1
DYEAR=1900
DGENRE=Country
TTITLE0=Willie Nelson and Ray Charles - Seven Spanish Angels
TTITLE1=Merle Haggard - Okie From Muskogee
TTITLE2=George Jones - She Thinks I Still Care
TTITLE3=Dolly Parton - Old Flames Can't Hold A Candle To You
TTITLE4=Charley Pride - Kiss An Angel Good Morning
TTITLE5=Waylon Jennings and Willie Nelson - Good Hearted Woman
TTITLE6=Glen Campbell - Galveston
TTITLE7=Roger Miller - King Of The Road
TTITLE8=Juice Newton - Angel Of The Morning
TTITLE9=Crystal Gayle - Don't It Make My Brown Eyes Blue
TTITLE10=Alabama - Love In The First Degree
TTITLE11=Marty Robbins - Devil Woman
TTITLE12=Johnny Cash - I Walk The Line
TTITLE13=Waylon Jennings - Amanda
TTITLE14=Charlie Daniels Band - The Devil Went Down To Georgia
TTITLE15=Don Williams - You're My Best Friend
EXTD=
EXTT0=
EXTT1=
EXTT2=
EXTT3=
EXTT4=
EXTT5=
EXTT6=
EXTT7=
EXTT8=
EXTT9=
EXTT10=
EXTT11=
EXTT12=
EXTT13=
EXTT14=
EXTT15=
PLAYORDER=
